<svg xmlns="http://www.w3.org/2000/svg" viewBox="0 0 64 64" width="64" height="64">
  <circle cx="32" cy="32" r="30" fill="#4a5568"/>
  <path d="M22 20c-3 0-5 2-5 5 0 2 1 4 3 5l-2 4c-2 4-2 8-1 12 1 4 3 7 6 8 2 1 4 1 6 0 4-2 6-7 6-12v-2c0-2 1-4 3-4 2 0 3 2 3 4v2c0 4 2 8 6 10 2 1 4 1 6 0 3-1 5-4 6-8l-2-4c2-1 3-3 3-5 0-3-2-5-5-5-2 0-4 1-5 3l-3 4c-1 2-3 3-5 3h-4c-2 0-4-1-5-3l-3-4c-1-2-3-3-5-3z" fill="#2d3748"/>
  <circle cx="27" cy="33" r="2" fill="#ffffff"/>
  <circle cx="37" cy="33" r="2" fill="#ffffff"/>
  <path d="M30 40c2 2 4 2 6 0" stroke="#ffffff" stroke-width="2" stroke-linecap="round"/>
</svg>
