<svg xmlns="http://www.w3.org/2000/svg" viewBox="0 0 64 64" width="64" height="64">
  <circle cx="32" cy="32" r="30" fill="#f4c542"/>
  <path d="M19 24c-4-4-6-9-6-13 0-3 2-4 4-4 3 0 5 3 7 6 1 2 2 4 4 5-3 2-5 5-6 8-1 2-2 4-3 6-1 2-2 3-4 4-2 2-3 4-3 6 0 1 1 2 2 2 1 0 2-1 3-2 2-4 4-6 7-8 3-2 5-5 6-9l-1-3z" fill="#d97706"/>
  <path d="M45 24c4-4 6-9 6-13 0-3-2-4-4-4-3 0-5 3-7 6-1 2-2 4-4 5 3 2 5 5 6 8 1 2 2 4 3 6 1 2 2 3 4 4 2 2 3 4 3 6 0 1-1 2-2 2-1 0-2-1-3-2-2-4-4-6-7-8-3-2-5-5-6-9l1-3z" fill="#b45309"/>
  <ellipse cx="32" cy="36" rx="12" ry="10" fill="#ffffff"/>
  <circle cx="29" cy="36" r="2" fill="#1f2937"/>
  <circle cx="35" cy="36" r="2" fill="#1f2937"/>
  <path d="M30 42c2 2 4 2 6 0" stroke="#1f2937" stroke-width="2" stroke-linecap="round"/>
</svg>
